<svg
  xmlns="http://www.w3.org/2000/svg"
  width="44"
  height="44"
  viewBox="0 0 44 44"
  fill="none"
>
  <path d="M22 39.9968C31.9393 39.9968 39.9967 31.9393 39.9967 22C39.9967 12.0607 31.9393 4.00327 22 4.00327C12.0607 4.00327 4.00323 12.0607 4.00323 22C4.00323 31.9393 12.0607 39.9968 22 39.9968Z" fill="#9DB2BF" />
  <path d="M22 33C28.0751 33 33 28.0751 33 22C33 15.9249 28.0751 11 22 11C15.9249 11 11 15.9249 11 22C11 28.0751 15.9249 33 22 33Z" fill="#011F4B" />
  <path d="M22 26.2232C24.3324 26.2232 26.2232 24.3324 26.2232 22C26.2232 19.6675 24.3324 17.7767 22 17.7767C19.6675 17.7767 17.7767 19.6675 17.7767 22C17.7767 24.3324 19.6675 26.2232 22 26.2232Z" fill="#9DB2BF" />
</svg>